<svg id="Layer_1" data-name="Layer 1" xmlns="http://www.w3.org/2000/svg" viewBox="0 0 566.93 566.93"><defs><style>.cls-1{fill:#fff;}</style></defs><path class="cls-1" d="M452.15,167.6a200,200,0,0,1,27.51,64.34l3,1.86c2.09,1.31,5.81,3.68,10.41,6.84a211.87,211.87,0,0,0-38.39-89.5c-.84,6-1.57,10.6-1.91,12.73Z"/><path class="cls-1" d="M87.5,231.8a200.34,200.34,0,0,1,27.32-64l-.64-4c-.34-2.1-1.05-6.63-1.88-12.51a212,212,0,0,0-38.2,89.13c4.5-3.08,8.13-5.4,10.2-6.69Z"/><path class="cls-1" d="M480.6,318.73a199.92,199.92,0,0,1-26.13,65l.83,3.58c.55,2.4,1.49,6.69,2.52,12.14a211.88,211.88,0,0,0,36.1-90.5c-4.88,3.67-8.7,6.45-10.45,7.72Z"/><path class="cls-1" d="M112.51,383.48A200,200,0,0,1,86.56,318.9l-3.1-2.25c-1.73-1.25-5.46-4-10.23-7.56a212.05,212.05,0,0,0,35.93,90.12c1-5.35,1.93-9.56,2.47-11.92Z"/><path class="cls-1" d="M87.83,418.86A240.88,240.88,0,0,1,44.51,311.52c-2.61,2.18-4.65,3.85-5.83,4.8l-1.54,1.24A249.1,249.1,0,0,0,78.86,420.37l1.28-.24C81.37,419.9,84.09,419.42,87.83,418.86Z"/><path class="cls-1" d="M522.59,311.67a240.75,240.75,0,0,1-43.31,107.22c3.65.55,6.3,1,7.5,1.24l1.47.27A248.91,248.91,0,0,0,530,317.7l-1.71-1.38C527.1,315.38,525.13,313.77,522.59,311.67Z"/><path class="cls-1" d="M45.13,239.28A241,241,0,0,1,90.31,132.7c-3.41-.31-6-.58-7.56-.73l-1.9-.21A249.21,249.21,0,0,0,37.71,234l1.1.76C39.84,235.46,42.1,237,45.13,239.28Z"/><path class="cls-1" d="M476.8,132.68A240.71,240.71,0,0,1,522,239.16c3-2.18,5.14-3.71,6.15-4.41l1.27-.87a249,249,0,0,0-43.13-102.14l-2.08.23C482.69,132.12,480.12,132.38,476.8,132.68Z"/><path class="cls-1" d="M72.39,366.68a227.13,227.13,0,0,1-16.71-64.59l-1.3,1.11c-2.2,1.88-4.28,3.64-6.19,5.25A236.89,236.89,0,0,0,92.38,418.22c2.83-.39,6-.77,9.42-1.11A228.09,228.09,0,0,1,72.39,366.68Z"/><path class="cls-1" d="M462.24,133.91a228.51,228.51,0,0,1,48.61,113.88c2.66-2.17,5.18-4.15,7.45-5.88A236.7,236.7,0,0,0,472,133.11c-2.51.22-5.28.45-8.22.68Z"/><path class="cls-1" d="M72.39,188.26a228.08,228.08,0,0,1,32.48-54.33l-1.74-.14c-2.87-.22-5.57-.45-8-.66A236.81,236.81,0,0,0,48.81,242.05c2.27,1.73,4.79,3.71,7.45,5.88A227.06,227.06,0,0,1,72.39,188.26Z"/><path class="cls-1" d="M511.43,302.24a228.53,228.53,0,0,1-46.12,114.89c3.41.34,6.59.73,9.41,1.11A236.52,236.52,0,0,0,518.91,308.6c-1.95-1.65-4.09-3.46-6.36-5.4Z"/><path class="cls-1" d="M498.72,305.3a215.65,215.65,0,0,1-39.89,99.88c0,.13.05.26.06.39.56,3.27,1.15,7,1.68,11A224.29,224.29,0,0,0,507.67,299l-.38-.33C504.33,301,501.43,303.23,498.72,305.3Z"/><path class="cls-1" d="M108.14,405a215.91,215.91,0,0,1-39.72-99.51c-2.77-2.11-5.74-4.41-8.78-6.8l-.2.18a224.27,224.27,0,0,0,47,117.56c.52-3.94,1.1-7.62,1.64-10.83A2.13,2.13,0,0,1,108.14,405Z"/><path class="cls-1" d="M69.22,243.9a216,216,0,0,1,42.26-98.4c-.47-3.5-1-7.29-1.42-11.2h-.24A224.33,224.33,0,0,0,60,250.67c3.16-2.42,6.16-4.61,8.82-6.49A2.55,2.55,0,0,0,69.22,243.9Z"/><path class="cls-1" d="M455.48,145.29a216,216,0,0,1,42.45,98.77l.17.12c2.72,1.92,5.8,4.17,9,6.65a224.33,224.33,0,0,0-49.84-116.56h-.42C456.42,138.13,455.94,141.85,455.48,145.29Z"/><path class="cls-1" d="M257,74.69a35.71,35.71,0,0,1-7.69-5.25,12.26,12.26,0,0,1-1.5-1.64,212.21,212.21,0,0,0-86.41,35.58c5.38,1,9.61,1.94,12,2.49l3.71.86a199.83,199.83,0,0,1,81.93-29c-.6-.79-1.15-1.58-1.62-2.34Z"/><path class="cls-1" d="M318.68,67.69a12,12,0,0,1-1.58,1.76,36.28,36.28,0,0,1-7.69,5.24l-.4.65c-.45.73-1,1.5-1.56,2.26A199.83,199.83,0,0,1,390,106.69l3.56-.82c2.4-.55,6.68-1.5,12.13-2.52a212.24,212.24,0,0,0-87-35.66Z"/><path class="cls-1" d="M230.29,41.93l.66-.24c4.64-1.69,9.9-3.6,14.32-4.23l1.13-.15A9.46,9.46,0,0,1,249.28,33a35.24,35.24,0,0,1,4.37-3.33A248.55,248.55,0,0,0,140.27,73l.24,1.34c.23,1.22.71,3.92,1.27,7.64a240.77,240.77,0,0,1,88.51-40.09Z"/><path class="cls-1" d="M380.73,47.48a247.36,247.36,0,0,0-68.17-18A36,36,0,0,1,317.1,33a9.5,9.5,0,0,1,2.9,4.31l1.16.15c4.27.6,9.32,2.42,13.85,4.06a241.07,241.07,0,0,1,90.18,40.37c.55-3.65,1-6.3,1.25-7.51l.26-1.46A248.37,248.37,0,0,0,380.73,47.48Z"/><path class="cls-1" d="M350.87,49.78c-.48,1.3-1.65,2.44-3.33,3.77a44.4,44.4,0,0,1-3.86,2.69,229.09,229.09,0,0,1,79.73,39.63c.35-3.41.73-6.59,1.11-9.42A236.16,236.16,0,0,0,376,58.76,233.28,233.28,0,0,0,350.87,49.78Z"/><path class="cls-1" d="M223,56.38a42.36,42.36,0,0,1-4.08-2.83A10.24,10.24,0,0,1,215.61,50a236.63,236.63,0,0,0-73.18,36.61c.37,2.83.76,6,1.1,9.43A228.84,228.84,0,0,1,223,56.38Z"/><path class="cls-1" d="M338.58,59.11a70,70,0,0,1-14.21,5.28,215.85,215.85,0,0,1,87.09,38l.4-.07c3.26-.56,7-1.14,11-1.67a224.66,224.66,0,0,0-84.29-41.49Z"/><path class="cls-1" d="M228.07,59.23a224.74,224.74,0,0,0-83.85,41.39c3.95.53,7.64,1.1,10.85,1.65l.56.09a215.88,215.88,0,0,1,86.72-37.89A69.86,69.86,0,0,1,228.07,59.23Z"/><path class="cls-1" d="M266.7,50.79a16.51,16.51,0,0,0,16.5,16.52h0a16.54,16.54,0,0,0,16.51-16.52h0a16.52,16.52,0,0,0-16.51-16.52h0a16.51,16.51,0,0,0-16.52,16.5Zm23.7,0a7.18,7.18,0,1,1-7.18-7.18h0a7.17,7.17,0,0,1,7.18,7.18Z"/><path class="cls-1" d="M274.41,75.53a3.19,3.19,0,0,1,1.17-.79,7,7,0,0,0-6.11-1.95,11.53,11.53,0,0,1-6.26-1.26,1.69,1.69,0,0,1-.18.91,1.81,1.81,0,0,1-1.71,1,3,3,0,0,1-.66-.08,29.56,29.56,0,0,0,4.92,5.89c2.21,2,4.08,2,5.41,1.36C271.49,78.17,273.8,76.05,274.41,75.53Z"/><path class="cls-1" d="M290.81,76.15c.24.2,11.17,9.33-7.53,9.33s-8.16-8.87-7.95-9C276.53,74.58,289.68,74.3,290.81,76.15Z"/><path class="cls-1" d="M259.54,60.83c-1.1,2.4-1,5.55,1.55,9.11,3.45,4.72-4.6.84-9.21-3.35-3.73-3.4-1-5.88.16-6.7a4.43,4.43,0,0,1,.46-.29l4.36-4,1.22-.3A4.43,4.43,0,0,1,259.54,60.83Z"/><path class="cls-1" d="M292,75.53a3.19,3.19,0,0,0-1.17-.79,7,7,0,0,1,6.11-1.95,11.53,11.53,0,0,0,6.26-1.26,1.69,1.69,0,0,0,.18.91,1.79,1.79,0,0,0,1.71,1,3,3,0,0,0,.66-.08,29.56,29.56,0,0,1-4.92,5.89c-2.22,2-4.08,2-5.41,1.36C294.88,78.17,292.58,76.05,292,75.53Z"/><path class="cls-1" d="M306.84,60.83c1.1,2.4,1,5.55-1.55,9.11-3.45,4.72,4.6.84,9.2-3.35,3.74-3.4,1-5.88-.15-6.7a4.57,4.57,0,0,0-.47-.29l-4.36-4-1.21-.3A4.43,4.43,0,0,0,306.84,60.83Z"/><path class="cls-1" d="M251.29,58.83l.45-.28,4.5-4.11,2.1-.5.47.32a5.73,5.73,0,0,1,1.39,1.39,11,11,0,0,0,.8-3.72h0c-15.38,3.3-25-1-25-1,10.9-2.78,23.3,0,25,.35a20.3,20.3,0,0,0-.87-4.36,5.93,5.93,0,0,1-1.29,1.26l-.47.32-2.1-.5-4.5-4.1-.45-.29a6.53,6.53,0,0,1-2.32-2.7c-1,.09-2,.22-3.22.38-8.86,1.25-22.25,8.51-26.11,7C216.23,47,229,58.78,248.88,61.81A6.24,6.24,0,0,1,251.29,58.83Z"/><path class="cls-1" d="M274.41,26.88a3.19,3.19,0,0,0,1.17.79,7,7,0,0,1-6.11,1.95,11.53,11.53,0,0,0-6.26,1.26A1.69,1.69,0,0,0,263,30a1.81,1.81,0,0,0-1.71-.95,3,3,0,0,0-.66.08,28.89,28.89,0,0,1,4.92-5.88c2.21-2,4.08-2,5.41-1.37C271.49,24.24,273.8,26.36,274.41,26.88Z"/><path class="cls-1" d="M290.81,26.26c.24-.2,11.17-9.33-7.53-9.33s-8.16,8.87-7.95,9.05C276.53,27.84,289.68,28.11,290.81,26.26Z"/><path class="cls-1" d="M259.54,41.58c-1.1-2.4-1-5.55,1.55-9.11,3.45-4.72-4.6-.84-9.21,3.35-3.73,3.4-1,5.89.16,6.7a4.43,4.43,0,0,0,.46.29l4.36,4,1.22.3A4.43,4.43,0,0,0,259.54,41.58Z"/><path class="cls-1" d="M292,26.88a3.19,3.19,0,0,1-1.17.79,7,7,0,0,0,6.11,1.95,11.53,11.53,0,0,1,6.26,1.26,1.69,1.69,0,0,1,.18-.91,1.78,1.78,0,0,1,1.71-.95,3,3,0,0,1,.66.08,29.5,29.5,0,0,0-4.92-5.88c-2.22-2-4.08-2-5.41-1.37C294.88,24.24,292.58,26.36,292,26.88Z"/><path class="cls-1" d="M306.84,41.58c1.1-2.4,1-5.55-1.55-9.11-3.45-4.72,4.6-.84,9.2,3.35,3.74,3.4,1,5.89-.15,6.7a4.57,4.57,0,0,1-.47.29l-4.36,4-1.21.3A4.43,4.43,0,0,1,306.84,41.58Z"/><path class="cls-1" d="M315.11,58.83l-.45-.28-4.49-4.11-2.1-.5-.48.32a6.27,6.27,0,0,0-1.38,1.39,11,11,0,0,1-.8-3.72h0c15.38,3.3,25-1,25-1-10.91-2.78-23.3,0-25,.35a19.73,19.73,0,0,1,.88-4.36,5.88,5.88,0,0,0,1.28,1.26l.48.32,2.1-.5,4.49-4.1.45-.29a6.53,6.53,0,0,0,2.27-2.67c1,.09,2.05.22,3.21.38,8.87,1.25,22.26,8.51,26.11,7,3.45-1.31-9.35,10.49-29.2,13.52A6.18,6.18,0,0,0,315.11,58.83Z"/><path class="cls-1" d="M329.37,485.19a212.46,212.46,0,0,0,80.76-36.79c-6-.86-10.69-1.59-12.83-1.94l-3.61-.57a200.11,200.11,0,0,1-75.05,29.8,45.8,45.8,0,0,1,7.82,5.66A12,12,0,0,1,329.37,485.19Z"/><path class="cls-1" d="M240,481.34a46.36,46.36,0,0,1,7.95-5.75,200,200,0,0,1-74.53-29.73l-3.76.6c-2.12.34-6.72,1.06-12.67,1.91A212.18,212.18,0,0,0,237.1,485,12.55,12.55,0,0,1,240,481.34Z"/><path class="cls-1" d="M369.86,506.81a70.79,70.79,0,0,1-9.42,6,91.34,91.34,0,0,1-19.12,7.58,249.41,249.41,0,0,0,88.11-40.31l-.23-2.17c-.15-1.47-.41-4-.71-7.3a240.35,240.35,0,0,1-50.95,29.33l-3.1,1.28C374.21,502.88,372.9,504.46,369.86,506.81Z"/><path class="cls-1" d="M196.55,506.81c-3.22-2.49-4.5-4.11-4.61-5.92l-2.36-1a241,241,0,0,1-51.12-29.46c-.32,3.35-.57,5.94-.73,7.43l-.22,2a249.48,249.48,0,0,0,84,39.37A90.59,90.59,0,0,1,206,512.79,69.71,69.71,0,0,1,196.55,506.81Z"/><path class="cls-1" d="M197.87,497h.38c2.12,0,6.14-1.3,10.45-2.84q-7.24-2.52-14.35-5.51a227.6,227.6,0,0,1-54.67-32.76c0,.55-.08,1.1-.12,1.63-.23,2.92-.46,5.67-.68,8.17a236.11,236.11,0,0,0,52.28,30.5l2.58,1.07a4.15,4.15,0,0,1,2.25-.65A5.49,5.49,0,0,1,197.87,497Z"/><path class="cls-1" d="M368.54,497a5.29,5.29,0,0,1,1.88-.37,4.2,4.2,0,0,1,2.51.83c1-.41,2-.82,3-1.25A236.37,236.37,0,0,0,428,465.85c-.22-2.54-.45-5.33-.68-8.31,0-.48-.08-1-.12-1.47a228.13,228.13,0,0,1-54.49,32.6q-7.28,3.07-14.71,5.63c4.18,1.49,8,2.72,10.1,2.72A1.88,1.88,0,0,0,368.54,497Z"/><path class="cls-1" d="M371.19,484.9a223.71,223.71,0,0,0,55.71-33.82v-.49c-3.8-.45-7.48-.93-10.9-1.39a216.12,216.12,0,0,1-78.68,38.47,99.2,99.2,0,0,1,14.6,4.37Q361.67,488.94,371.19,484.9Z"/><path class="cls-1" d="M151.12,449.18c-3.46.47-7.2.95-11.06,1.41v.34a223.49,223.49,0,0,0,55.89,34q9.35,3.94,18.92,7a92.86,92.86,0,0,1,14.68-4.32A216.45,216.45,0,0,1,151.12,449.18Z"/><path class="cls-1" d="M316.72,504.73c0-8-1.93-9.78-3.67-9.79-2.11-.06-4.76,2.75-4.76,2.75s-2,2.14-8.75,2.38a18,18,0,0,1-4.49-.57V510a17.39,17.39,0,0,1,4.49-.58c6.77.24,8.75,2.38,8.75,2.38s2.65,2.81,4.76,2.76C314.79,514.51,316.7,512.74,316.72,504.73Z"/><path class="cls-1" d="M369.87,500.6c-5.15,2-23-7.72-34.82-9.38-3.17-.45-5.79-.68-7.94-.77a7.87,7.87,0,0,1-2.72,3.14c-.24.18-.44.3-.56.38h0L319,498.2a24.8,24.8,0,0,1,.52,3.63A86.24,86.24,0,0,1,345,504s-8.18,3.75-25.47,3a26.74,26.74,0,0,1-.42,3.57l4.74,4.12h0c.12.08.32.19.56.37a7.33,7.33,0,0,1,3,4C355.85,516,374.67,498.76,369.87,500.6Z"/><path class="cls-1" d="M311.51,476.93c-.44.05-.39.05-.42.25a4.46,4.46,0,0,0,1,2,13.88,13.88,0,0,1,3.06,8.21,10.37,10.37,0,0,1-1.18,4.75c2.12.34,3.64,1.9,4.56,4.66L323,493c.06-.05.29-.17.64-.41.94-.67,2.6-2.13,2.58-4.07,0-1.17-.58-2.61-2.41-4.28-4-3.72-10.29-7.26-12.27-7.26Z"/><path class="cls-1" d="M294.77,471a5,5,0,0,1,1,3.08,6.86,6.86,0,0,1-.94,3.39c3.6-2.27,8.93-3,15.15.6a2.47,2.47,0,0,1-.19-1v-.15a1.54,1.54,0,0,1,1.55-1.3h.19a4.43,4.43,0,0,1,.89.12,38.45,38.45,0,0,0-7-8.66c-2.79-2.55-5.16-2.63-6.92-2A12,12,0,0,1,294.77,471Z"/><path class="cls-1" d="M323.66,516.16l-.64-.41-4.3-3.73c-.83,3-2.31,4.69-4.41,5.18a10.35,10.35,0,0,1,.86,4.07,13.93,13.93,0,0,1-3.06,8.22,4.46,4.46,0,0,0-1,2c0,.21,0,.21.42.26h.05c2,0,8.25-3.55,12.27-7.27,1.83-1.67,2.41-3.1,2.41-4.28C326.26,518.29,324.6,516.83,323.66,516.16Z"/><path class="cls-1" d="M311.48,533.07h-.11a1.53,1.53,0,0,1-1.55-1.3v-.15a2.47,2.47,0,0,1,.19-1c-6.81,4-12.57,2.68-16.14-.1l-.16-.06-.08-.06-.07-.11a7.78,7.78,0,0,1,1.53,4.4,5.09,5.09,0,0,1-.71,2.61c1,.93,3.59,3.47,4.14,6.26,1.76.67,4.13.59,6.92-1.95a38.45,38.45,0,0,0,7-8.66,4.43,4.43,0,0,1-.89.12Z"/><path class="cls-1" d="M306.31,495.67a12.28,12.28,0,0,1,5.34-3.4,6.48,6.48,0,0,0-1.12-1.33c-2.67-2.47-6.85-4.83-8.16-4.83h0c-.29,0-.26,0-.28.17a4.57,4.57,0,0,0,.68,1.36c2.41,4.1.77,7.38-1,9.42A10.12,10.12,0,0,0,306.31,495.67Z"/><path class="cls-1" d="M298.29,479.58a4.71,4.71,0,0,0-3.79-1.51,15.4,15.4,0,0,1-2.29,2.8,9.49,9.49,0,0,0-1.3,4,8.29,8.29,0,0,1,9.86,1.47v-.28a1.41,1.41,0,0,1,1.41-1.24h.48A26.12,26.12,0,0,0,298.29,479.58Z"/><path class="cls-1" d="M302.06,522.46c0,.14,0,.14.28.17h0c1.31,0,5.49-2.36,8.16-4.83a8,8,0,0,0,.7-.73,12.78,12.78,0,0,1-4.93-3.29,9.49,9.49,0,0,0-4-1.3,7.35,7.35,0,0,1,.4,8.63A4.71,4.71,0,0,0,302.06,522.46Z"/><path class="cls-1" d="M293.85,530.52c1.15.38,2.66.26,4.44-1.35a25.8,25.8,0,0,0,4.38-5.28h-.48a1.38,1.38,0,0,1-1.41-1.23v-.29a8.39,8.39,0,0,1-10.63,1,9.62,9.62,0,0,0,1.37,4.43,16.59,16.59,0,0,1,2,2.42h0Z"/><path class="cls-1" d="M293.69,530.46l.16.06-.34-.28h0l.07.11Z"/><path class="cls-1" d="M249.68,504.73c0-8,1.94-9.78,3.68-9.79,2.1-.06,4.76,2.75,4.76,2.75s2,2.14,8.75,2.38a18,18,0,0,0,4.49-.57V510a17.39,17.39,0,0,0-4.49-.58c-6.78.24-8.75,2.38-8.75,2.38s-2.66,2.81-4.76,2.76C251.62,514.51,249.71,512.74,249.68,504.73Z"/><path class="cls-1" d="M278,492.13a17,17,0,0,0,.57-4.49c-.23-6.78-2.38-8.76-2.38-8.76s-2.8-2.65-2.75-4.76c0-1.73,1.77-3.64,9.74-3.67s9.73,1.94,9.75,3.67c.05,2.11-2.75,4.76-2.75,4.76s-2.15,2-2.38,8.76a17.94,17.94,0,0,0,.56,4.49Z"/><path class="cls-1" d="M283.2,538.29c-7.37-.14-9-2-9-3.67-.05-2.1,2.75-4.76,2.75-4.76s2.15-2,2.38-8.75a17,17,0,0,0-.57-4.49h8.95a17,17,0,0,0-.57,4.49c.23,6.77,2.38,8.75,2.38,8.75s2.8,2.66,2.75,4.76C292.23,536.3,290.57,538.15,283.2,538.29Z"/><rect class="cls-1" x="272.65" y="493.42" width="21.11" height="21.91" rx="5.16"/><path class="cls-1" d="M283.2,467.61c-5.18,0-8.78.88-10.76,2.56-2.95-2.94-9.63-11.36,10.76-11.47,20.4.11,13.71,8.53,10.76,11.47C292,468.49,288.38,467.64,283.2,467.61Z"/><path class="cls-1" d="M283.2,550c-21.18-.1-13.15-9.2-10.43-11.78,1.8,1.82,5.28,2.8,10.43,2.9,5.16-.1,8.65-1.08,10.44-2.9C296.35,540.8,304.39,549.9,283.2,550Z"/><path class="cls-1" d="M196.54,500.6c5.14,2,23-7.72,34.82-9.38,3.17-.45,5.79-.68,7.93-.77a7.94,7.94,0,0,0,2.72,3.14c.25.18.44.3.57.38h0l4.87,4.23a23.34,23.34,0,0,0-.52,3.63A86,86,0,0,0,221.45,504s8.18,3.75,25.47,3a26.76,26.76,0,0,0,.43,3.57l-4.74,4.12h0c-.13.08-.32.19-.57.37a7.46,7.46,0,0,0-3,4C210.55,516,191.74,498.76,196.54,500.6Z"/><path class="cls-1" d="M254.89,476.93c.45.05.39.05.43.25a4.46,4.46,0,0,1-1,2,13.86,13.86,0,0,0-3,8.21,10.49,10.49,0,0,0,1.17,4.75c-2.11.34-3.64,1.9-4.55,4.66l-4.55-3.8c-.07-.05-.29-.17-.64-.41-.94-.67-2.6-2.13-2.58-4.07,0-1.17.57-2.61,2.41-4.28,4-3.72,10.29-7.26,12.27-7.26Z"/><path class="cls-1" d="M271.64,471a5,5,0,0,0-1,3.08,7,7,0,0,0,.95,3.39c-3.6-2.27-8.93-3-15.15.6a2.65,2.65,0,0,0,.19-1v-.14a1.52,1.52,0,0,0-1.54-1.3h-.19a4.63,4.63,0,0,0-.9.12,38.45,38.45,0,0,1,7-8.66c2.79-2.55,5.16-2.63,6.91-2C268.4,467.62,270.45,469.89,271.64,471Z"/><path class="cls-1" d="M242.75,516.16l.64-.41,4.29-3.73c.84,3,2.32,4.69,4.41,5.18a10.56,10.56,0,0,0-.85,4.07,14,14,0,0,0,3,8.22,4.36,4.36,0,0,1,1,2c0,.21,0,.21-.43.26h0c-2,0-8.26-3.55-12.27-7.27-1.84-1.67-2.41-3.1-2.41-4.28C240.15,518.29,241.81,516.83,242.75,516.16Z"/><path class="cls-1" d="M254.93,533.07H255a1.52,1.52,0,0,0,1.54-1.3v-.15a2.65,2.65,0,0,0-.19-1c6.81,4,12.57,2.68,16.13-.1a.49.49,0,0,0,.17-.06l.07-.06.08-.11a7.94,7.94,0,0,0-1.54,4.4,5.19,5.19,0,0,0,.71,2.61c-1,.93-3.57,3.47-4.14,6.26-1.75.67-4.12.59-6.91-1.95a38.45,38.45,0,0,1-7-8.66,4.63,4.63,0,0,0,.9.12Z"/><path class="cls-1" d="M260.1,495.67a12.37,12.37,0,0,0-5.35-3.4,6.23,6.23,0,0,1,1.13-1.33c2.67-2.47,6.84-4.83,8.16-4.83h0c.29,0,.26,0,.28.17a4.57,4.57,0,0,1-.68,1.36c-2.42,4.1-.77,7.38,1,9.42A10.12,10.12,0,0,1,260.1,495.67Z"/><path class="cls-1" d="M268.12,479.58a4.7,4.7,0,0,1,3.78-1.51,15.4,15.4,0,0,0,2.29,2.8,9.19,9.19,0,0,1,1.31,4,8.29,8.29,0,0,0-9.86,1.47v-.28a1.41,1.41,0,0,0-1.41-1.24h-.54A26.42,26.42,0,0,1,268.12,479.58Z"/><path class="cls-1" d="M264.35,522.46c0,.14,0,.14-.28.17h0c-1.32,0-5.49-2.36-8.16-4.83a6.88,6.88,0,0,1-.7-.73,13,13,0,0,0,4.93-3.29,9.37,9.37,0,0,1,3.95-1.3,7.36,7.36,0,0,0-.39,8.63A4.55,4.55,0,0,1,264.35,522.46Z"/><path class="cls-1" d="M272.55,530.52c-1.15.38-2.66.26-4.43-1.35a25.85,25.85,0,0,1-4.39-5.28h.48a1.38,1.38,0,0,0,1.41-1.23v-.29a8.39,8.39,0,0,0,10.63,1,9.62,9.62,0,0,1-1.37,4.43,15.4,15.4,0,0,0-2,2.42h0Z"/><path class="cls-1" d="M272.72,530.46a.49.49,0,0,1-.17.06l.35-.28h0l-.08.11Z"/><path class="cls-1" d="M56,253.78c-9.1-7.63-17.22-13.38-19.86-15.2-.4.38-.93.89-1.55,1.54-4.41,4.75-12.07,15.12-2.58,27.42a50.17,50.17,0,0,0,3.6,4.11l.48.5c.84-.95,1.72-1.91,2.65-2.88A176,176,0,0,1,56,253.78Z"/><path class="cls-1" d="M80.87,279c-5.18,5.26-11.62,11.17-17.67,16.52,10.24,8,19.67,15,23,17.35a6.72,6.72,0,0,0,.4-.75,23.73,23.73,0,0,0,2-5.84c1.07-5,1.11-12-3.26-20.28A55.7,55.7,0,0,0,80.87,279Z"/><path class="cls-1" d="M51.36,299.67c9.21-7.88,20.32-17.74,27.85-25.61h0a83.36,83.36,0,0,0,5.64-6.39h0c6.34-8.23,6.55-15.82,5.27-21.58h0a26.92,26.92,0,0,0-3.36-8.35h0c-2.39,1.49-8.2,5.19-15.25,10.23h0c-9.28,6.58-20.71,15.45-29.38,24.51h0A63.63,63.63,0,0,0,31.83,286h0c-7.13,13.41,1.05,23.66,3.93,26.75h0c2.33-1.87,8.38-6.85,15.6-13Z"/><path class="cls-1" d="M139.24,100c-1-11.83-2.71-21.64-3.29-24.79h-2.2c-6.47.25-19.22,2.16-21.2,17.56a47.36,47.36,0,0,0-.37,5.45v.7c1.26-.08,2.57-.13,3.91-.16A175.53,175.53,0,0,1,139.24,100Z"/><path class="cls-1" d="M139,135.43c-7.39,0-16.13-.33-24.18-.82,1.55,12.93,3.34,24.48,4,28.52.24-.06.51-.14.8-.24a24.43,24.43,0,0,0,5.55-2.72c4.3-2.79,9.26-7.71,12-16.65A56,56,0,0,0,139,135.43Z"/><path class="cls-1" d="M104.15,126.06c12.08.94,26.91,1.82,37.81,1.58h0c3.26-.07,6.18-.24,8.5-.53h0c10.3-1.33,15.82-6.56,19-11.52h0A27,27,0,0,0,173,107.3h0c-2.74-.64-9.47-2.13-18-3.55h0c-11.22-1.91-25.57-3.72-38.12-3.44h0a64.44,64.44,0,0,0-16.8,2.23h0C85.55,107,84.08,120,84,124.24h0c3,.32,10.77,1.08,20.24,1.82Z"/><path class="cls-1" d="M105.77,421.41c-11.83,1-21.63,2.71-24.78,3.29v2.19c.25,6.48,2.17,19.22,17.56,21.2a47.38,47.38,0,0,0,5.46.37h.69c-.07-1.27-.13-2.57-.16-3.91A175.46,175.46,0,0,1,105.77,421.41Z"/><path class="cls-1" d="M141.19,421.69c.05,7.39-.32,16.12-.82,24.18,12.93-1.56,24.48-3.34,28.52-4a5.78,5.78,0,0,0-.24-.81,24.43,24.43,0,0,0-2.72-5.55c-2.79-4.29-7.7-9.26-16.64-12A54.81,54.81,0,0,0,141.19,421.69Z"/><path class="cls-1" d="M134.92,457.15c1-12.08,1.83-26.9,1.59-37.8h0c-.08-3.27-.24-6.18-.54-8.5h0c-1.33-10.31-6.56-15.82-11.52-19h0a26.9,26.9,0,0,0-8.29-3.52h0c-.63,2.74-2.13,9.46-3.55,18h0c-1.91,11.2-3.72,25.55-3.44,38.1h0a63.63,63.63,0,0,0,2.24,16.81h0c4.43,14.52,17.47,16,21.7,16.13h0c.31-3,1.07-10.77,1.81-20.25Z"/><path class="cls-1" d="M510.9,253.78c9.1-7.63,17.22-13.38,19.85-15.2.41.38.94.89,1.56,1.54,4.41,4.75,12.07,15.12,2.58,27.42a51.76,51.76,0,0,1-3.59,4.11l-.49.5c-.84-.95-1.72-1.91-2.65-2.88A176,176,0,0,0,510.9,253.78Z"/><path class="cls-1" d="M486.06,279c5.19,5.26,11.62,11.17,17.67,16.52-10.24,8-19.67,15-23,17.35-.12-.21-.26-.46-.39-.75a23.73,23.73,0,0,1-2-5.84c-1.07-5-1.11-12,3.26-20.28A58,58,0,0,1,486.06,279Z"/><path class="cls-1" d="M515.57,299.67c7.22,6.18,13.28,11.16,15.6,13h0c2.88-3.09,11.06-13.34,3.93-26.75h0a63.67,63.67,0,0,0-10.3-13.47h0c-8.68-9.06-20.1-17.93-29.38-24.51h0c-7.05-5-12.86-8.74-15.25-10.23h0a27.19,27.19,0,0,0-3.37,8.35h0c-1.27,5.76-1.07,13.35,5.28,21.58h0c1.43,1.85,3.37,4,5.63,6.39h0c7.54,7.87,18.64,17.73,27.86,25.61Z"/><path class="cls-1" d="M427.69,100c1-11.83,2.72-21.64,3.3-24.79h2.19c6.46.25,19.22,2.16,21.2,17.56a47.36,47.36,0,0,1,.37,5.45v.7c-1.26-.08-2.57-.13-3.91-.16A175.53,175.53,0,0,0,427.69,100Z"/><path class="cls-1" d="M428,135.43c7.39,0,16.12-.33,24.18-.82-1.55,12.93-3.34,24.48-4,28.52-.24-.06-.5-.14-.8-.24a24.86,24.86,0,0,1-5.55-2.72c-4.3-2.79-9.26-7.71-12-16.65A56,56,0,0,1,428,135.43Z"/><path class="cls-1" d="M463.44,129.16c9.48-.74,17.28-1.5,20.24-1.82h0c-.14-4.22-1.61-17.26-16.12-21.7h0a64.46,64.46,0,0,0-16.81-2.23h0c-12.55-.28-26.9,1.53-38.11,3.44h0c-8.55,1.42-15.28,2.92-18,3.55h0a27.27,27.27,0,0,0,3.53,8.29h0c3.17,5,8.68,10.19,19,11.52h0c2.32.29,5.22.46,8.5.53h0c10.9.24,25.72-.64,37.8-1.58Z"/><path class="cls-1" d="M461.16,421.41c11.82,1,21.63,2.71,24.79,3.29v2.19c-.25,6.48-2.17,19.22-17.57,21.2a47.36,47.36,0,0,1-5.45.37h-.69c.07-1.27.12-2.57.15-3.91A175.46,175.46,0,0,0,461.16,421.41Z"/><path class="cls-1" d="M425.74,421.69c-.05,7.39.32,16.12.82,24.18-12.94-1.56-24.48-3.34-28.52-4a5.41,5.41,0,0,1,.24-.81,24.86,24.86,0,0,1,2.72-5.55c2.79-4.29,7.7-9.26,16.64-12A54.81,54.81,0,0,1,425.74,421.69Z"/><path class="cls-1" d="M432,457.15c.74,9.48,1.5,17.28,1.81,20.25h0c4.23-.15,17.26-1.61,21.7-16.13h0a63.63,63.63,0,0,0,2.24-16.81h0c.28-12.55-1.53-26.9-3.45-38.1h0c-1.42-8.56-2.91-15.28-3.54-18h0a26.9,26.9,0,0,0-8.29,3.52h0c-5,3.17-10.19,8.68-11.52,19h0a80.48,80.48,0,0,0-.54,8.5h0c-.24,10.9.65,25.72,1.59,37.8Z"/></svg>