<svg id="Layer_1" data-name="Layer 1" xmlns="http://www.w3.org/2000/svg" viewBox="0 0 566.93 566.93"><defs><style>.cls-1{fill:#fff;}</style></defs><path class="cls-1" d="M418.5,216.88c13.11,19.84,21.62,44.3,21.15,77.72-1.15-.15-1.1-1.52-2-2,2,9.55,1,19.48,1,30.5-4.23-5.12-7.23-11.47-10.82-17.22a94.29,94.29,0,0,1,0,23.62c-3.85-4.7-7.69-9.38-10.34-15.26,1,9.16-.54,19.6-3.93,27.06-1.66-1.13-2-3.57-3.44-4.92.94,11.84,2.89,22.68,7.37,31-8.47-2-18.05-7.19-21.64-15.74-3,8.12-5.81,16.49-10.33,23.12-.87-.44-1.44-1.18-2.46-1.47-.07,6.13,2.63,9.5,5.41,12.79a12,12,0,0,1-9.84,2c-.07,2.54,3,6.17,3.45,9.85a48.37,48.37,0,0,1-22.63-11.81A37,37,0,0,1,355,402.84c-1.85,1.31-3.89-3.57-5.41-3.45-1.79.13-5.51,6.87-6.89,8.37-3,3.2-5.78,4.78-7.87,6.88-6.18,6.18-8.73,13.06-12.3,17.71-.82-2.79-2.35-4.86-3.44-7.38-4.54,3.83-7.52,7.78-12.3,11.31-7.37,5.46-17.68,6.17-22.14,14.27a197.6,197.6,0,0,1-37.88-24.11c-.05,3.56-.81,6.41-.49,10.33-6.63-15.49-21-23.28-29.52-36.88-1.43.69-1.34,2.91-2,4.42-5.43-3.43-9.29-8.42-9.34-17.22-6,2.23-11.82,8.84-17.71,12.8-.25-3.9-2.36-7.31-1-11.33-3,.26-9,1.85-13.28,2.47,2.72-5.2,9.2-8.59,8.37-14.76-.45-3.29-5.31-7.36-7.39-11.31a52.62,52.62,0,0,1-4.92-13.29c-4.43,7.37-11,12.62-19.18,16.24-.14-8.46,5.09-17.2,3.94-26.08-.76-5.82-11.65-15.89-6.4-27.55-3.23,5.14-4.31,12.43-5.9,19.19-3-7.14-6.76-15.64-4.92-26.07-3,2.76-7,8.72-11.31,11.81-.62-11.25-2-23.74,1.47-33-.67-1.58-2.07,2.77-2.46,1.48-.23-32.69,8.64-56.3,23.61-73.79-11.09,3.18-10.7,17.82-23.11,19.68,7.25-32.62,27.88-58.15,46.72-82.16,7.75-9.86,12.18-20.7,27.06-22.14,12.89-9.2,29.84-19.18,52.64-15.25-2.42-5.27-.74-11.71-.49-18.19,10.87,12.41,25.69,20.88,31,38.85,5.63-16.17,19.47-24.14,28-37.39,3.08,3.89,5.44,10,3.45,16.24,21.5-2.41,40.12,5.94,52.63,15.74,5.36,1.23,9.61,2.54,13.28,5.41,4.62,3.61,6.5,9.11,9.84,13.78,1.31,1.82,3.27,2.76,4.93,4.43,20.68,20.91,34.43,50.27,47.22,79.2C430.14,230.82,427.07,221.1,418.5,216.88Zm16.73,94c.67-34-16.36-52.85-36.9-63.95a20,20,0,0,1,3.44,5.41c-3.24-3.16-8.23-7.18-9.84-10.33,19,5.71,29.88,19.36,39.36,33.94,1.15,1.76,2.36,4.2,4.43,4.92C434,248.49,421,224.75,406.2,207c12.86,2.56,20.86,12.59,29,18.2-13.75-26.93-27.51-56.44-49.2-73.79,3,3.88,6,7.73,6.89,13.78-2.64-.65-3.26-3.3-4.92-4.92.95,15,2.93,34.09-10.33,37.38,13.11,5.58,22.31,15.08,28.53,27.55-11.84-6.46-36.21,2.58-45.26-6.39-.38-5.37-5.63-8.47-5.41-12.8,3.87.39,5.69,2.84,8.85,3.94-.24-3.7-4.46-3.41-4.91-6.89,2.06.11,4.11.18,4.42-1.47-5-1.24-12.59.12-13.28-5.42,13.48-1.34,18.54,5.74,26.07,10.34-4.48-25.37-37.95-24.37-48.21-42.31,5.81.76,8.81,4.31,13.28,6.4-1.46-6.25-10.61-7.43-12.79-11.32,7.88.5,12.37,7,18.7,7.38-3.4-5.62-8.57-9.47-14.27-12.79-.39-17.56,15.47-26.74,31.49-21.65-13.43-9.73-36.83-20.6-59-12.3,2.51-3.88,6.22-8.62,4.43-15.25A105.79,105.79,0,0,0,281.75,144c-3.27-8-5.56-16.68-10.82-23.12-3.83-4.69-8.84-8.43-12.8-12.3-1.24-1.21-2-3.68-3.93-3-.65,7.06,3.35,9.45,4.43,14.77-20.34-9.62-45.25,1.76-57.56,12.3,16.52-6.24,30.86,4.22,31,20.66-5,3.75-11.89,8.11-12.79,14.27,4.31-3.4,9.56-8.48,17.23-6.89-5.12,2.1-13,4.09-11.82,10.82,1.66-4.58,5.94-6.52,12.3-6.39-12.28,17.23-45.82,15.83-47.22,42.3,3.57-7.06,14.78-14,23.61-8.36-3.27,2-10,.45-11.8,3.93,1.33.31,3.9-.62,4.42.49-1.3,2.47-4.43,3.11-4.92,6.4,1.81.07,4.79-5.3,8.85-3-.89,1.23-1,3.24-2.46,3.93-6.19,2.25-15.92.24-22.62,1-11.33,1.27-17.94,7.82-26.08,12.3,7-11.82,17-20.68,28.54-28h-6.4c-4.43-9-4.14-22.75-4.92-35.41-1.13,1.66-1.5,4.07-3.45,4.92.55-5.21,3.75-10.36,3.94-14.27-17.72,21.8-36.06,45.6-44.76,74.78,5.15-11.58,12.65-18.7,28.53-19.19-16.59,16-30.64,37.26-30.51,68.38,4.48-8.33,12.67-14.22,21.66-17.72,2.83-1.09,5.89-3.65,8.85-2.46-19.3,9.58-34.14,23.59-31.48,55.11,6.74-4.41,7.91-14.39,17.71-15.75-3.46,6.54-8.63,16.43-4.92,25.59,2.2-8.45,5.91-15.4,14.27-17.71-3.85,6.89-7.89,22.21-2,30,1.16-7.38,4-13.05,9.85-15.75-5.74,11.32-6,30.78-7.87,44.28,7.35-4.29,10.56-12.72,14.75-20.17,2.49,10.79,5.18,21.38,11.32,28.53,1-2.48,0-6.9,3-7.37,1.28,8.32.73,18.33-1.48,23.6,5.77-1.44,8.21-8.84,11.81-10.82,1,8.5-4.64,10.45-4.92,17.72A128.6,128.6,0,0,0,210,377.17c-.62,6.69-2,17.93,3.45,20.17.39-3,.71-6.18,3.44-6.88,4.26,15.74,18.42,21.59,26.57,33.44-.55-4.86-3.28-7.54-4.92-11.31,12.34,13.89,28.16,24.32,45.25,33.45,3.4-6.46,11.47-7.34,17.22-10.82,10.25-6.18,16.42-15.76,26.08-22.63-1.85,3.4-5,5.55-4.43,11.31,7.88-12.29,21.22-19.1,27.06-33.44,1.72,1.89.87,6.33,3.93,6.88,2.67-4.62,1.85-15.12,2-20.66,5.63,6.18,11.6,12,20.17,15.25-1.39-5.57-8.25-11.62-4.43-17.71,2.16,4.56,5,11,11.31,9.84-4.05-4.5-4.6-16.74-1-22.13,1.33,2.11.33,6.55,2.95,7.37,5.13-8.15,6.63-19.94,11.32-28.53,1.75,9.89,6.88,16.4,14.75,20.17-4.14-13.24-4.14-33.24-8.36-44.76,5.15,3.7,6.74,11,10.33,16.23,4.1-9.63-1.09-22.41-2-30,7.71,2.62,9.5,11.17,14.27,16.73,1.18-11.2-4-18.65-5.9-25.1,8.2,2.84,11.8,10.22,16.21,16.8ZM378.65,178.5c.34,5.1-.83,8.69-.49,13.78,6.29-9.07,3.46-28.83-4.43-33.94,3.26,9.28-.3,20.27-3.44,27.54C374.29,184.65,374.49,179.59,378.65,178.5ZM356,143.58c10,3.09,20.09,8.77,27.06,13.29C376.78,150.23,369.11,140.2,356,143.58Zm8.86,33.94c.22-14-5-25.13-15.25-27.05,3.25,1.67,5.16,4.67,6.39,8.36-2.06-1.06-2.63-3.6-5.41-3.93,2.68,9.63,7.14,17.47,14.29,22.62Zm3.44-17.7c-5.67-5.48-8.75-13.56-18.69-14.76,5.32,5.52,12.28,12,18.71,14.76Zm-159.88-1c1.09-4.49,7.31-6.46,6.88-10.82-7.73,5.87-18.27,15.71-13.27,29.51,4.08-7.4,11.14-11.81,11.8-22.62-2.65.11-3.24,4.94-5.39,3.94Zm-10.33,2.46c3.68-7.46,15.06-9.86,17.21-17.22-7.62,3.51-15.83,9.08-17.19,17.23Zm-14.76-3.44c4.21-9.56,19.24-8.32,25.58-15.75-12.75.69-23.11,6.39-25.56,15.76Zm4.43,20.65c2.33,2.59,3.13,6.71,7.87,6.89-6-4.81-4.71-16.93-5.9-26.56-6.17,6.93-9.46,26.49-2,34.43-.52-4.59-2.73-11.09.05-14.75Z"/><path class="cls-1" d="M428.83,292.64c-.21-.64-.43-1.28-.65-1.92A7.25,7.25,0,0,1,428.83,292.64Z"/><path class="cls-1" d="M416,230.16c5.56,6.24,8.32,15.28,11.32,24.11-9-7.78-16.6-16.86-28.05-22.14,6.07.33,13.2,3.86,17.71,7.38C419.15,237.28,416.51,232.9,416,230.16Z"/><path class="cls-1" d="M411.12,264.1c8.55,4.16,13.35,15.82,17.06,26.62-3.75-7.42-19.34-5.22-13.62,5.36C406.38,289.07,413.29,273.85,411.12,264.1Z"/><path class="cls-1" d="M397.84,179c8.27,6.82,14.26,15.92,19.67,25.59-5.65-4.66-15.78-4.66-24.1-5.41C392.3,191.75,397.93,187,397.84,179Z"/><path class="cls-1" d="M398.82,306.91c-1.88-2.44-4-7.24-7.87-6.4-4.38.94-2.31,6.43-2,10.33,1.27,14.45-3.25,33.72-5.9,42.31-1.22-7.31-.72-16.34-5.91-19.68-2.57,2.15-1.39,6.07-2,8.85-1.61,7.84-6.43,14.36-9.35,20.67-1.36-7.49.52-15.05-1.48-20.17-3.22-8.28-12.93-10.56-16.23-18.2.54-12.24,1-23.67,6.4-32,1.43-2.21,4.17-3.87,5.41-6.4,5.69-11.57,2.22-26.93,2-43.29v-1.47C393.22,244.3,393.15,278.47,398.82,306.91Z"/><path class="cls-1" d="M350.61,226.72a8.3,8.3,0,0,1,2.95,4.92c-3.09,3.62-6.37,7.07-7.87,12.3,1.58,1.54,3.24-3.62,4.43-2.46,2,9.89.19,22.17-1,32-1.55,12.93-9.94,23.47-14.26,35.42-4.45,12.32-8.09,24-9.84,39.36,3.11-4.6,4.44-11,7.38-15.74,2.87,2.7,7.55,3.6,8.36,8.36-2,.25-2.17-1.44-4.43-1,5,5.77,12.91,10,13.78,20.66-5-6-9.38-12.6-17.22-15.75-1.47,3.29-1.18,8.34-2.46,11.81-3.72-1.53-7-3.54-11.81-3.93a3.86,3.86,0,0,1,0-3.94c-2.65,1.62-6.52,4-10.82,2.46,5.93-2.6,13.74-3.32,14.27-11.31-3.39,4.49-16.28,4.54-23.61,2,4.09-4.26,18.23,1.52,19.18-5.9-2,.49-8.78,4-11.31,0,2.78-4.92,12.51-11,5.9-17.71-4.68,16.81-30.38,12.57-28,36.4,5.58,5.94,22.28,13.68,30.5,4.92,4,1.72,8.1,3.38,11.8,5.42-5.58,9.16-8.14,21.36-13.28,31-1.36-1.26.34-5.59-1-6.89-3.2,9.49-17.83,16.21-26.08,6.89,1.65,13.92-19.54,6.59-17.7-3.94-.89,1.57-.21,4.7-2,5.41-7.91.85-11.53-2.57-13.78-7.38-1.13.85-.18,3.76-.49,5.42-7.62-6-3.61-23.61-11.8-29,2.93-2.82,7.85-3.62,11.31-5.9,9.17,7.63,21.68-.57,29-4.92,3.74-23.66-22.88-21-28-37.39-7.05,6.91,4.34,11.78,5.41,18.2-3,3.49-7.42-.44-11.31-.49,1.52,7,14.92,2.14,20.17,5.41-6.75,3.14-20.66,2.94-25.09-2,2,7.18,8.79,9.58,15.74,11.81-4.21,1.58-8.9-.61-11.31-2.46-.57.29-.08,3.65.49,4.43-3.62,1.79-7.62,3.2-11.31,4.92-2-3.3-2.79-7.71-2.46-13.29-9.69,1.63-11.63,11-18.7,15.26,2.45-9.2,8.7-14.6,14.76-20.17-2.66-.54-2.93,1.33-5.41,1,2.15-3.76,5.59-6.22,9.35-8.36,3,4.74,3,12.42,7.87,15.24-3.25-7.41-4.36-11.56-4.92-20.16-.82-12.61-4.64-20.3-10.82-29.52-9.85-14.7-12.17-32.47-10.34-57.06,2.38.24,2.07,3.18,4.43,3.44-.89-5.67-5.71-11.66-11.81-13.78,8.31-11.14,18.35-24.9,39.36-20.17-12.88,3-25.24,6.58-31,16.73,2.68,1,7-3.06,10.82-1-6.68,1-12.75,11.82-4.42,15.25,4.64-11.42,11.38-20.76,27.54-20.66-7.78,6.65-18.84,10-21.15,22.13,2-.74,8.69-1.14,9.35-4.92,7.46.34,12.28,1.82,15.74,5.42,4.07,4.22,7.21,13,7.38,18.68s-3.4,10.93-5.91,17.72c-3.57,9.71-6.88,22.37-4.92,32.47,3.66-8.65,7.8-16.79,15.25-21.65-8.44,14.22.76,31.87,15.75,33.95,20,2.74,24.27-17.7,17.71-34.94,7.5,5.46,11.82,14.09,16.23,22.64,2.83-17.68-8.29-30.12-8.36-47.73-.06-14.17,3.34-27.56,21.15-26.07,1.2,1.16-.55,1.1-1,2,3.35.91,7.21,1.3,9.84,2.95-1.72-11.08-13.38-16.47-21.65-22.63,15.44-1,22.92,10.21,28.53,20.66,7.31-4.17,1.07-14.6-5.9-14.76C341.44,223.73,347.91,228.52,350.61,226.72Zm-17.22,57.55c2.24-9.1,18.76-24.57,4.92-32-2.76,5.11-6.54,9.2-12.3,11.31,2.74-4.16,6.33-7.44,8.37-12.29-7.39,1.46-9.32,8.39-19.19,7.37-5,7-3,20.66,2.46,25.58.44,8.92,1.84,16.86,8.36,19.68,1.07-6.91,6.48-11.74,4.43-20.17.56.6,1.74.59,2.95.52Zm-18.2-36.89c-2.49,10.78,16.95,8.64,14.76-2-1.2-1.1-3.52-1.09-5.9-1,.17,2.3-.23,4-1.48,4.92-2.57-.52-4.27-3.44-7.38-1.92Zm-13.28,72.81c5.34-.41,9.34-4.75,8.36-9.84-2.63,1-5.7,1.51-7.87,2.95.6,3.13-1.77,4.48-.49,6.89Zm2,68.87c6.78-2.78,7-14,2.95-20.17-11.62,2.31-17.59-6.7-25.58-6.39-6.26.24-14.95,9.75-25.09,7.38-.87,9.06,2.58,13.81,7.38,17.21.27-2.58-2.08-5.11-.5-7.38,6.9,2,15.78,8.6,11.81,16.73,10.78-5-7.63-15.56,1.48-20.17,7,2.69,7,14.93,16.72,13.28-8.31-.61-9-16.62,0-15.25,1.77,6.28.67,15.4,4.92,19.19-2.18-5.42-2.58-16.89,3.45-17.22,7.2-.4,4.41,10.51,2.43,12.79ZM263,320.19c1.38-2-.52-4.2,0-6.89-3-.74-4.56-3-8.85-2.46C255.13,316,257.54,319.62,263,320.19Zm-11.31-70.84c-1.84-.79-2.61-2.63-4.92-2.95.06,2.35-1.64,2.95-3.93,2.95-1.94-.3-1.65-3.38-1-4.92-2,.18-4.71-.45-5.9.49-2.1,11,13.59,12.52,15.79,4.43Zm-14.26,55.09c10.39-8.3,18.71-29.94,10.32-45.26-11.58,1.35-12.78-10.07-25.08-6.38-6.29,5.61-1.18,17.94,2.46,22.62,2.43,1.51,6.36,1.5,7.38,4.43-3.15,9.8,3.23,16.63,5,24.59Z"/><path class="cls-1" d="M356.51,193.75c-6.07-.32-12.1-4.94-18.69-6.39,4.62-1.11-4.44-4.49-8.37-5.91-4.85-1.74-9.59-3-12.78-2.95.53-2.41,2-3.9,2-6.88-10.33,1.64-14.27,12.29-20.66,16.23,1.12-4.94,4.32-7.81,5.42-12.78-1.83-.83-1.9,4.33-4.43,4.42-1.18-2.2,2.09-3.66,2-6.39-6.38,5.58-9.18,19-11.31,30.49-2.89-3.33-1.25-12.4-.49-16.72-2.33.3-3.53,6-4.43,9.34-3.8-13.43,9.2-27.32,22.63-29,3.66-.47,6.84.34,10.33,0,6.55,3.71,10.74,8.92,16.73,13.76C341.43,186.69,350.36,188.05,356.51,193.75Z"/><path class="cls-1" d="M349.13,378.73c-1.73-1.55-2.72-3.84-5.41-4.43-3.66,1.56-1.33,6.08-1.47,8.86-.41,8.33-6.4,13.43-9.84,19.18-.26.76-.51,0-.5-.49.79-3.07,2.25-7.81,1-11.31-3.19,1.57-4.83,4.67-6.4,7.87-1.75-16.52,5.87-27.92,12.79-37.39C344.63,364.86,348.16,370.52,349.13,378.73Z"/><path class="cls-1" d="M344.22,193.75c-2.92,1.24-.28,4.55,1,5.91-7.71-6.3-29-11-40.34-2.46-2.61,2-8.51,7.38-8.36,10.33.42,8.32,16.6,2.44,22.13,2.95,4.81.46,6.81,3.72,10.33,5.91-3.51.18-4.71-3.37-8.35-3.45-5.49-.11-9.85,7.43-14.27,7.38-1.9,0-3.19-2.09-4.92-2.46-6.26-1.32-10.82,1.63-14.77,5.41a14.32,14.32,0,0,0,3,10.34c-1.31,3.28-4.74,4.44-6.89,6.89-2.76-1.18-4.57-3.31-6.88-4.93,4.3-11.55-5.85-20.78-18.21-15.74-.51-2.26-6.29-2.22-9.84-3,5.37-2.93,11-2,13.29-6.4,4.5-8.5-8.78-28-18.7-24.6-6.79,2.32-12.07,6.88-21.15,7.38,8.31-4.09,21.87-16.35,33.94-8.85,3.47,2.16,3.75,7,8.37,8.85.74-.76.69-2.6.29-4,3.93,7.94,5.68,21.44,16.43,23.63,2-.64,1.4-3.84,1.48-6.39,1.68,2.09,1.85,5.69,4.91,6.39,9.75-9.44,11.49-26.88,27.07-30.5-4,3.57,12.72,4.19,16.72,5.41C337,189.87,340.12,193.49,344.22,193.75Z"/><path class="cls-1" d="M341.75,310.84c1.52,7.28-5.37,12.42-2.95,20.66-2.32-.63-3.52-2.38-5.41-3.44C333.82,320,338.19,315.8,341.75,310.84Z"/><path class="cls-1" d="M333.88,133.25c-3.82,4.21-5.58,10.49-6.88,17.22-13-.72-24.44.16-32,4.92-11.39-7.4-2.55-25.31,4.92-31,1.45,1.46-.9,3.7-1,6.4-.11,3.75,1.73,8.08,4.43,8.36,3.53.38,4.84-4.81,7.37-7.38,4.88-5,13.7-6.71,20.66-6.89-6.78,3.63-16.68,9.14-12.79,20.18C324.79,142.19,326,134.4,333.88,133.25Z"/><path class="cls-1" d="M329.45,357.58c.12,1.91-1.05,2.54-1.47,3.93-3.41-2.66-8.85-3.27-10.82-7.38C321.39,353.25,325.74,356.32,329.45,357.58Z"/><path class="cls-1" d="M331.91,157.85c-4.59-.14-10.44-2.4-13.76.49,2,1.73,4.15,3.38,4.91,6.4-14.21-5.86-32.13.61-38.37,8.36a50.15,50.15,0,0,1,2.46-11.81c-1.83,1.36-.11-4.37,2-4.92,2,1.32,0,6.6,2,7.87,7.42-1.28,15.2-9.64,22.64-3.44,2.51-.76,2.19-4.37,3.44-6.4C323.3,154.33,329.43,154.26,331.91,157.85Z"/><path class="cls-1" d="M316.18,356.59c3.52,2.55,9.14,3,11.31,6.89-3.33-.34-7.63-3.8-11.81-4.92C315.62,357.68,316.28,357.52,316.18,356.59Z"/><path class="cls-1" d="M310.76,405.3c3.12,12.82-7.82,15.31-10.82,23.6-2.66-4.86,1.3-9.23,2.95-12.79-12.93-3.26-3.37,20.25-13.77,21.16,5.08-4.6,3.47-16.34-2.47-19.19-5.37,1.13-7.32,11.54-2.95,15.25-5.7-.37-5.71-10.68-7.86-16.24-7.94,1.24-.67,11.94-6.4,14.77,1.7-8.4-3.12-17.09-10.82-19.19-1.67.79-1.49,3.44-1.48,5.9-3.46-4.14-7.37-10.25-5.9-17.7,4.83,1.57,9.46,5.38,15.25,4.43,4.74,5,20,7.5,25.09,1C296.78,409.63,306.29,408.18,310.76,405.3Z"/><path class="cls-1" d="M307.81,233.11c-1.61-.7-5-1.64-6.89-.49-2.45,3.32,1.15,7.23,1.48,10.83-8.43-.73-11.8,3.61-14.76,8.36-.45-7.66,3.57-10.87,9.84-11.81C291.78,230.87,306,222.4,307.81,233.11Z"/><path class="cls-1" d="M278.79,182.44c0,3.45.25,7.14-1,9.35-1.91-2.69-3.22-6-5.91-7.88,2.84,3.45,2.48,12.78,1.47,19.68-5.43-10.48-4.08-25-18.2-27.55.57,1.75,4.41,4.45,4.92,7.87-11.85-12.94-33.53,2.66-45.26,7.39-.55-.09-.27-.5,0-.5,10.34-5.64,22.08-18.75,39.36-19.67C263.77,170.62,275.45,174.24,278.79,182.44Z"/><path class="cls-1" d="M276.33,158.83c3.84,3.61,7.41,15.54,2,19.67-4.17-10.09-11.15-17.38-24.6-18.19,6.9-5.44,14.55,2.79,21.15,3.93C276.82,163.91,276.28,161.08,276.33,158.83Z"/><path class="cls-1" d="M267.47,238.52c4.14,3.9,11.25,4.82,10.34,13.78-3.36-4.53-6.07-9.68-14.77-8.85.21-3.77,2.62-7.28,1-11.32a15.43,15.43,0,0,0-6.89,1C258.35,222.63,273.82,230.7,267.47,238.52Z"/><path class="cls-1" d="M264,124.39c9,4.93,16.4,22.4,6.89,31.49-8.18-4.79-19.56-6.36-33.45-5.41A31.07,31.07,0,0,0,234,137.68c-1-1.82-3.16-3.1-2.46-4.43,6.9,1.8,8.88,8.49,14.26,11.81,5.18-9.23-5.3-17.29-12.78-19.68,6.52-.61,16,1.38,21.15,6.39,2.27,2.24,3.32,7.41,6.89,7.38C266,139.11,267.41,129.54,264,124.39Z"/><path class="cls-1" d="M263.83,189.31c-.25-.51-.51-1-.79-1.46A2.88,2.88,0,0,1,263.83,189.31Z"/><path class="cls-1" d="M250.75,160.31c1.13.83,3.77.16,4.42,1.47-4.79.78-8.67,2.47-13.77,3,1.19-2.59,3.9-3.65,4.42-6.89-3.32-2.76-8.4.6-12.78,0,2.15-4.24,9.38-3.41,15.73-3.45C249.18,156.63,250.2,158.23,250.75,160.31Z"/><path class="cls-1" d="M249.27,358.07c1.3-.16,1.27,1,1.48,2-4.66.48-7.67,5.06-11.81,4.42C241.52,361.47,246.16,360.53,249.27,358.07Z"/><path class="cls-1" d="M236,359.54c3.42-1.34,10.3-6.9,12.78-3-3,2.77-6.87,4.6-10.81,6.4A9.37,9.37,0,0,0,236,359.54Z"/><path class="cls-1" d="M229.1,361c8.67,8.55,14.72,19.72,14.27,37.39-1.87-2.89-3.54-6-6.4-7.87-2.13,3.2.38,8.28.5,12.3-5.85-7.21-10.84-14.39-10.83-28.54-3.44-.32-4.48,4.37-6.4,3.94C221.39,370.68,225.18,365.78,229.1,361Z"/><path class="cls-1" d="M221.72,310.84c6.17,2.58,14.65,17,4.92,20.66C227,324.22,224.21,316.79,221.72,310.84Z"/><path class="cls-1" d="M210.41,294.6c3.49,10.3,14.93,31.24,8.36,46.25-1.57,3.59-5.24,6.48-7.38,10.33A124.83,124.83,0,0,0,206,363c-4.26-5.91-5.24-15.11-9.35-21.16-4-1.88-10.69,1.74-11.31,1.48,3.07-3.2,9.14-5.9,8.86-10.82-3.41-5-14.51-2.24-22.15-2.95,2.79-4.43,11.91-8.8,11.81-18.7-.1-10.47-10.45-13.39-16.73-7.38-.06-3.84,1.25-6.29,4.43-6.89-5.72-4.4-15.62-.79-19.67,2.47a18.42,18.42,0,0,1,10.33-11.81c-5.91-5.7-18-2.2-20.17,4.43,1.83-9.51,6.7-16.55,16.23-24.12,5.59-4.43,23.05-11.46,23.12-18.19.07-6.53-9.4-7.45-15.25-9.35,6.37-1.51,12-15.14,16.73-17.22s13.31-.61,16.72,2.46c-4,4.21-6.76,11.24,1,14.76C198.36,257.66,205.09,278.94,210.41,294.6Z"/><path class="cls-1" d="M166.13,177.52c2.51,5.72,6.32,12.68,5.41,20.17-8.81-.14-18.24.36-23.12,5.41C151.54,193.76,159.79,185.29,166.13,177.52Z"/><path class="cls-1" d="M147.93,237.54c5.14-3.56,11.4-6,18.2-7.87-10.64,6.09-19,14.42-27.55,22.63a73.68,73.68,0,0,1,10.83-24.6C150.08,228.16,146.6,234.75,147.93,237.54Z"/></svg>